<?xml version="1.0" encoding="UTF-8"?><svg xmlns="http://www.w3.org/2000/svg" viewBox="0 0 12.47 128.9"><defs><style>.d{fill:#fff;}</style></defs><g id="a"/><g id="b"><g id="c"><path class="d" d="M12.43,97.52v-2.51c0-.31-.33-.5-.6-.34L.25,101.35c-.12,.07-.2,.2-.2,.34v2.11c0,.14,.08,.27,.2,.34l11.58,6.69c.26,.15,.6-.04,.6-.34v-2.51c0-.14-.08-.27-.2-.34l-2.13-1.23c-.12-.07-.2-.2-.2-.34v-6.63c0-.14,.08-.27,.2-.34l2.13-1.23c.12-.07,.2-.2,.2-.34Zm-5.69,6.95l-2.38-1.37c-.26-.15-.26-.53,0-.69l2.38-1.37c.26-.15,.6,.04,.6,.34v2.75c0,.31-.33,.5-.6,.34Zm-3.73-27.87c-1.41,0-2.95,1.15-2.95,2.57H.05v13.32c0,.23,.19,.41,.41,.41H12.07c.22,0,.4-.18,.4-.4v-2.63c0-.22-.18-.4-.4-.4h-3.52c-.22,0-.39-.18-.39-.39v-9.51c0-1.64-1.33-2.97-2.97-2.97H3.01Zm1.77,3.44c.22,0,.4,.18,.41,.4v8.62c0,.23-.19,.41-.41,.41h-1.34c-.22,0-.4-.18-.4-.4v-8.64c0-.22,.18-.4,.4-.4h1.36Zm4.72-9.7v-8.32c0-.22,.18-.4,.4-.4h2.12c.22,0,.4,.18,.4,.4v11.62c0,.22-.18,.4-.4,.4H.4c-.22,0-.4-.18-.4-.4v-2.49c0-.22,.18-.4,.4-.4H9.09c.22,0,.4-.18,.4-.4ZM.05,46.16v11.16c0,1.42,1.15,2.57,2.57,2.57h7.27c1.42,0,2.57-1.15,2.57-2.57v-11.16c0-1.42-1.15-2.57-2.57-2.57H2.62c-1.42,0-2.57,1.15-2.57,2.57Zm9.04,.86c.22,0,.4,.18,.4,.4v8.64c0,.22-.18,.4-.4,.4H3.43c-.22,0-.4-.18-.4-.4v-8.64c0-.22,.18-.4,.4-.4h5.66Zm-5.66-9.41h5.66c.22,0,.4-.18,.4-.4v-8.64c0-.22-.18-.4-.4-.4h-1.36c-.22,0-.4,.18-.4,.4v3.46c0,.22-.18,.4-.4,.4h-1.77c-.22,0-.4-.18-.4-.4v-6.89c0-.22,.18-.39,.39-.39h4.73c1.42,0,2.57,1.15,2.57,2.57v11.16c0,1.42-1.15,2.57-2.57,2.57H2.62c-1.42,0-2.57-1.15-2.57-2.57v-11.16c0-1.42,1.15-2.57,2.57-2.57h0c.22,0,.4,.18,.4,.4v12.07c0,.22,.18,.4,.4,.4Zm0,87.87h5.66c.22,0,.4-.18,.4-.4v-8.64c0-.22-.18-.4-.4-.4h-1.36c-.22,0-.4,.18-.4,.4v3.46c0,.22-.18,.4-.4,.4h-1.77c-.22,0-.4-.18-.4-.4v-6.89c0-.22,.18-.39,.39-.39h4.73c1.42,0,2.57,1.15,2.57,2.57v11.16c0,1.42-1.15,2.57-2.57,2.57H2.62c-1.42,0-2.57-1.15-2.57-2.57v-11.16c0-1.42,1.15-2.57,2.57-2.57h0c.22,0,.4,.18,.4,.4v12.07c0,.22,.18,.4,.4,.4ZM12.43,20.51h0c0,.91-.74,1.65-1.65,1.65H1.65C.74,22.17,0,21.43,0,20.51H0c0-.91,.74-1.65,1.65-1.65H10.78c.91,0,1.65,.74,1.65,1.65ZM8.69,3.02V.4c0-.22,.18-.4,.4-.4h.81c1.42,0,2.57,1.15,2.57,2.57V13.73c0,1.42-1.15,2.57-2.57,2.57H2.62C1.2,16.3,.05,15.15,.05,13.73V2.57C.05,1.15,1.2,0,2.62,0h.81c.22,0,.4,.18,.4,.4V3.02c0,.22-.18,.41-.41,.41h0c-.22,0-.4,.18-.4,.4V12.47c0,.22,.18,.4,.4,.4h5.66c.22,0,.4-.18,.4-.4V3.83c0-.22-.18-.4-.4-.4h0c-.22,0-.4-.18-.4-.4Z"/></g></g></svg>