<?xml version="1.0" encoding="UTF-8"?><svg xmlns="http://www.w3.org/2000/svg" viewBox="0 0 128.9 12.47"><defs><style>.d{fill:#fff;}</style></defs><g id="a"/><g id="b"><g id="c"><path class="d" d="M31.38,12.43h2.51c.31,0,.5-.33,.34-.6L27.55,.25c-.07-.12-.2-.2-.34-.2h-2.11c-.14,0-.27,.08-.34,.2l-6.69,11.58c-.15,.26,.04,.6,.34,.6h2.51c.14,0,.27-.08,.34-.2l1.23-2.13c.07-.12,.2-.2,.34-.2h6.63c.14,0,.27,.08,.34,.2l1.23,2.13c.07,.12,.2,.2,.34,.2Zm-6.95-5.69l1.37-2.38c.15-.26,.53-.26,.69,0l1.37,2.38c.15,.26-.04,.6-.34,.6h-2.75c-.31,0-.5-.33-.34-.6Zm27.87-3.73c0-1.41-1.15-2.95-2.57-2.95h-13.32c-.23,0-.41,.19-.41,.41V12.07c0,.22,.18,.4,.4,.4h2.63c.22,0,.4-.18,.4-.4v-3.52c0-.22,.18-.39,.39-.39h9.51c1.64,0,2.97-1.33,2.97-2.97V3.01h0Zm-3.44,1.77c0,.22-.18,.4-.4,.41h-8.62c-.23,0-.41-.19-.41-.41v-1.34c0-.22,.18-.4,.4-.4h8.64c.22,0,.4,.18,.4,.4v1.36Zm9.7,4.72h8.32c.22,0,.4,.18,.4,.4v2.12c0,.22-.18,.4-.4,.4h-11.62c-.22,0-.4-.18-.4-.4V.4c0-.22,.18-.4,.4-.4h2.49c.22,0,.4,.18,.4,.4V9.09c0,.22,.18,.4,.4,.4ZM82.74,.05h-11.16c-1.42,0-2.57,1.15-2.57,2.57v7.27c0,1.42,1.15,2.57,2.57,2.57h11.16c1.42,0,2.57-1.15,2.57-2.57V2.62c0-1.42-1.15-2.57-2.57-2.57Zm-.86,9.04c0,.22-.18,.4-.4,.4h-8.64c-.22,0-.4-.18-.4-.4V3.43c0-.22,.18-.4,.4-.4h8.64c.22,0,.4,.18,.4,.4v5.66Zm9.41-5.66v5.66c0,.22,.18,.4,.4,.4h8.64c.22,0,.4-.18,.4-.4v-1.36c0-.22-.18-.4-.4-.4h-3.46c-.22,0-.4-.18-.4-.4v-1.77c0-.22,.18-.4,.4-.4h6.89c.22,0,.39,.18,.39,.39v4.73c0,1.42-1.15,2.57-2.57,2.57h-11.16c-1.42,0-2.57-1.15-2.57-2.57V2.62c0-1.42,1.15-2.57,2.57-2.57h11.16c1.42,0,2.57,1.15,2.57,2.57h0c0,.22-.18,.4-.4,.4h-12.07c-.22,0-.4,.18-.4,.4Zm-87.87,0v5.66c0,.22,.18,.4,.4,.4H12.47c.22,0,.4-.18,.4-.4v-1.36c0-.22-.18-.4-.4-.4h-3.46c-.22,0-.4-.18-.4-.4v-1.77c0-.22,.18-.4,.4-.4h6.89c.22,0,.39,.18,.39,.39v4.73c0,1.42-1.15,2.57-2.57,2.57H2.57C1.15,12.47,0,11.32,0,9.9V2.62C0,1.2,1.15,.05,2.57,.05H13.73c1.42,0,2.57,1.15,2.57,2.57h0c0,.22-.18,.4-.4,.4H3.83c-.22,0-.4,.18-.4,.4ZM108.39,12.43h0c-.91,0-1.65-.74-1.65-1.65V1.65c0-.91,.74-1.65,1.65-1.65h0c.91,0,1.65,.74,1.65,1.65V10.78c0,.91-.74,1.65-1.65,1.65Zm17.49-3.74h2.62c.22,0,.4,.18,.4,.4v.81c0,1.42-1.15,2.57-2.57,2.57h-11.16c-1.42,0-2.57-1.15-2.57-2.57V2.62c0-1.42,1.15-2.57,2.57-2.57h11.16c1.42,0,2.57,1.15,2.57,2.57v.81c0,.22-.18,.4-.4,.4h-2.63c-.22,0-.41-.18-.41-.41h0c0-.22-.18-.4-.4-.4h-8.64c-.22,0-.4,.18-.4,.4v5.66c0,.22,.18,.4,.4,.4h8.64c.22,0,.4-.18,.4-.4h0c0-.22,.18-.4,.4-.4Z"/></g></g></svg>