<?xml version="1.0" encoding="UTF-8"?><svg xmlns="http://www.w3.org/2000/svg" viewBox="0 0 23.78 22.9"><defs><style>.d{fill:#fff;}</style></defs><g id="a"/><g id="b"><g id="c"><path class="d" d="M23.73,10.25h0l-1.96-6.6h0c-.09-.32-.29-.59-.56-.77l-.03-.02h-.03L15.99,.19h0C15.78,.07,15.55,0,15.3,0h-6.83c-.24,0-.48,.06-.69,.17h0L2.63,2.83h-.03l-.03,.03h0c-.28,.18-.48,.46-.56,.77h0L.05,10.23h0c-.05,.18-.07,.37-.04,.55,.02,.18,.08,.36,.17,.52,.09,.16,.22,.3,.36,.41,.15,.11,.32,.19,.5,.23h0l3.07,.72v6.69h0c0,.8,.3,1.57,.85,2.16,.54,.57,1.27,.92,2.05,.97,1.56,.28,3.13,.43,4.71,.44h.3c1.58-.02,3.16-.17,4.71-.46,.78-.06,1.51-.41,2.04-.98,.55-.58,.85-1.35,.85-2.15h0v-6.64l3.09-.72h0c.18-.04,.35-.12,.5-.23,.15-.11,.27-.25,.37-.41,.09-.16,.15-.34,.18-.52,.02-.18,0-.37-.04-.55ZM13.58,2.34c-.22,.23-.48,.41-.78,.53-.29,.12-.61,.19-.92,.19s-.63-.06-.92-.19c-.29-.12-.56-.3-.78-.53-.22-.23-.39-.5-.51-.79-.04-.11-.08-.23-.1-.35h4.61c-.03,.12-.06,.24-.1,.35-.11,.3-.29,.57-.51,.79Zm8.98,8.37s-.03,.04-.04,.05-.04,.02-.06,.03l-2.82,.66v-1.64c0-.33-.27-.6-.6-.6s-.6,.27-.6,.6v9.52h0c0,.5-.19,.97-.53,1.33s-.8,.58-1.3,.61h-.08c-1.49,.29-3,.44-4.52,.45h-.28c-1.52,0-3.03-.15-4.52-.42h-.07c-.49-.04-.96-.25-1.3-.61-.34-.36-.53-.84-.53-1.33h0V9.8c0-.33-.27-.6-.6-.6s-.6,.27-.6,.6v1.62l-2.8-.65s-.04-.01-.06-.03-.03-.03-.04-.05c-.01-.02-.02-.04-.02-.06,0-.02,0-.04,0-.06L3.16,3.97h0v-.02s.03-.06,.06-.08L8.34,1.24h.02c.04,.25,.1,.5,.2,.74,.17,.45,.43,.85,.76,1.19,.33,.34,.73,.62,1.17,.8,.44,.19,.91,.28,1.39,.28s.95-.1,1.39-.28c.44-.19,.84-.46,1.17-.8,.33-.34,.59-.75,.76-1.19,.09-.24,.16-.49,.2-.75h.01l.03,.02h0l5.12,2.63s.05,.05,.06,.09h0v.02h0l1.96,6.59s0,.04,0,.07,0,.04-.02,.06Z"/></g></g></svg>