<?xml version="1.0" encoding="UTF-8"?><svg xmlns="http://www.w3.org/2000/svg" viewBox="0 0 19.03 19.03"><defs><style>.d{fill:#fff;}</style></defs><g id="a"/><g id="b"><g id="c"><g><rect class="d" x="2.37" y="15.29" width="1.37" height="1.37" rx=".68" ry=".68"/><line class="d" x1="13.79" y1="18.14" x2="13.8" y2="18.15"/><path class="d" d="M13.39,12.43c-.27-.27-.7-.27-.96,0s-.27,.7,0,.96l2.38,2.38c.27,.27,.7,.27,.96,0s.27-.7,0-.96l-2.38-2.38Z"/><path class="d" d="M18.07,13.87l.08-.08h0l-4.29-4.3h.01c.83,.07,1.66-.08,2.41-.42,.75-.35,1.4-.89,1.88-1.57s.77-1.47,.85-2.29c.08-.83-.06-1.66-.4-2.41-.09-.2-.28-.35-.5-.39-.22-.04-.44,.03-.6,.19l-2.67,2.67c-.24-.1-.46-.25-.65-.43-.19-.19-.33-.41-.43-.65l2.67-2.67c.16-.16,.23-.38,.19-.6-.04-.22-.19-.41-.39-.5C15.47,.08,14.64-.06,13.81,.02c-.83,.08-1.62,.37-2.29,.85-.68,.48-1.22,1.13-1.57,1.88-.35,.75-.5,1.58-.42,2.41h0c.06,.68-.02,1.28-.26,1.71l-3.15-3.15v-.99c0-.24-.13-.46-.33-.58L2.39,.1c-.27-.16-.61-.12-.83,.1L.2,1.56h0c-.22,.22-.26,.56-.1,.83h0l2.04,3.4c.12,.2,.34,.33,.58,.33h.99l2.99,2.99L1.09,13.73h0c-.32,.27-.59,.59-.77,.97-.19,.37-.3,.78-.32,1.2-.02,.42,.05,.83,.2,1.22s.38,.74,.67,1.04,.65,.52,1.04,.67,.81,.22,1.22,.2c.42-.02,.82-.13,1.2-.32,.37-.19,.7-.45,.97-.77h0l3.74-4.54,4.75,4.75h0c.58,.57,1.36,.88,2.17,.88s1.58-.33,2.15-.9,.9-1.35,.9-2.15c0-.81-.3-1.59-.87-2.17l-.08,.08ZM4.48,4.95c-.13-.13-.3-.2-.48-.2h-.89L1.54,2.14l.61-.61,2.61,1.57v.89c0,.18,.07,.35,.2,.48l3.33,3.33-.53,.43-3.28-3.28Zm3.99,7h0l-4.22,5.12h0c-.14,.18-.32,.32-.53,.42-.2,.1-.43,.16-.65,.17-.23,.01-.45-.03-.67-.11-.21-.08-.4-.21-.57-.37-.16-.16-.29-.35-.37-.57-.08-.21-.12-.44-.11-.67,.01-.23,.07-.45,.17-.65,.1-.2,.25-.38,.42-.53h0l6.19-5.1h0l1.56-1.3h.01l.09-.08h0c1.02-.85,1.15-2.22,1.06-3.25h0c-.05-.59,.05-1.18,.3-1.72,.25-.54,.63-1,1.12-1.34s1.05-.55,1.64-.61c.23-.02,.47-.01,.7,.01l-2.14,2.14c-.17,.17-.23,.41-.18,.63,.14,.62,.46,1.19,.91,1.64,.45,.45,1.02,.77,1.64,.91,.23,.05,.47-.02,.63-.18l2.14-2.14c.03,.23,.03,.46,.01,.7-.06,.59-.27,1.15-.61,1.64s-.8,.87-1.34,1.12-1.13,.35-1.72,.3h0c-.55-.05-1.17-.03-1.75,.13-.02,0-.03,0-.05,.01-.01,0-.02,0-.03,0h-.03s-.03,.02-.05,.03c-.5,.16-.98,.43-1.35,.88h0l-2.26,2.75Zm8.69,5.2c-.32,.32-.75,.5-1.2,.5-.45,0-.89-.17-1.21-.48l-4.84-4.84,1.87-2.27h0c.11-.13,.25-.24,.41-.33l5,5c.31,.32,.49,.76,.48,1.21,0,.45-.18,.88-.5,1.2Z"/></g></g></g></svg>