<?xml version="1.0" encoding="UTF-8"?><svg xmlns="http://www.w3.org/2000/svg" viewBox="0 0 23.78 16.99"><defs><style>.d{fill:#fff;}</style></defs><g id="a"/><g id="b"><g id="c"><g><path class="d" d="M8.92,8.49c1.17,0,2.12-.95,2.12-2.12V2.12c0-1.17-.95-2.12-2.12-2.12H2.12C.95,0,0,.95,0,2.12V6.37c0,.56,.22,1.1,.62,1.5,.4,.4,.94,.62,1.5,.62h6.8ZM1.82,6.67c-.08-.08-.12-.19-.12-.3V2.12c0-.23,.19-.42,.42-.42h6.8c.23,0,.42,.19,.42,.42V6.37c0,.23-.19,.42-.42,.42H2.12c-.11,0-.22-.04-.3-.12Z"/><path class="d" d="M9.77,10.19H3.82c-1.17,0-2.12,.95-2.12,2.12v2.55c0,.56,.22,1.1,.62,1.5s.94,.62,1.5,.62h5.95c1.17,0,2.12-.95,2.12-2.12v-2.55c0-1.17-.95-2.12-2.12-2.12Zm.42,4.67c0,.23-.19,.42-.42,.42H3.82c-.11,0-.22-.04-.3-.12-.08-.08-.12-.19-.12-.3v-2.55c0-.23,.19-.42,.42-.42h5.95c.23,0,.42,.19,.42,.42v2.55Z"/><path class="d" d="M21.66,1.7h-5.95c-1.17,0-2.12,.95-2.12,2.12V13.17c0,.56,.22,1.1,.62,1.5,.4,.4,.94,.62,1.5,.62h5.95c1.17,0,2.12-.95,2.12-2.12V3.82c0-1.17-.95-2.12-2.12-2.12Zm0,11.89h-5.95c-.11,0-.22-.04-.3-.12s-.12-.19-.12-.3V3.82c0-.23,.19-.42,.42-.42h5.95c.23,0,.42,.19,.42,.42V13.17c0,.23-.19,.42-.42,.42Z"/></g></g></g></svg>