<?xml version="1.0" encoding="UTF-8"?><svg xmlns="http://www.w3.org/2000/svg" viewBox="0 0 21.29 22.93"><defs><style>.d{fill:#fff;}</style></defs><g id="a"/><g id="b"><g id="c"><g><rect class="d" x="16.38" y="9.01" width="1.65" height="1.65" rx=".82" ry=".82"/><rect class="d" x="13.1" y="9.01" width="1.65" height="1.65" rx=".82" ry=".82"/><path class="d" d="M18.59,5.5h0c-.46-.07-.93-.12-1.39-.18V2.05c0-1.13-.92-2.05-2.05-2.05H6.14c-1.13,0-2.05,.92-2.05,2.05v3.28c-.46,.06-.93,.11-1.39,.18h0c-1.59,.24-2.7,1.62-2.7,3.18v6.87c0,.87,.35,1.7,.96,2.32s1.45,.96,2.32,.96h.29l-.17,1.86h0c-.11,1.2,.83,2.23,2.04,2.23H15.85c.28,0,.57-.06,.83-.17,.26-.11,.49-.28,.69-.49,.19-.21,.34-.46,.43-.73s.12-.55,.1-.84h0l-.17-1.86h.29c.43,0,.86-.08,1.25-.25,.4-.16,.76-.41,1.06-.71,.3-.3,.55-.67,.71-1.06,.16-.4,.25-.82,.25-1.25v-6.87c0-1.57-1.12-2.95-2.7-3.18ZM6.14,1.64H15.15c.23,0,.41,.18,.41,.41v3.11c-3.27-.3-6.56-.3-9.83,0V2.05c0-.23,.18-.41,.41-.41Zm10.12,19.21c0,.06,0,.11-.02,.17-.02,.05-.05,.1-.09,.15-.04,.04-.09,.08-.14,.1s-.11,.03-.17,.03H5.44c-.24,0-.43-.21-.41-.45h0l.25-2.75h0l.35-3.88c3.33-.37,6.69-.37,10.02,0l.35,3.88h0l.25,2.75h0Zm2.91-4.13c-.15,.15-.33,.27-.53,.35-.2,.08-.41,.12-.63,.12h-.44l-.26-2.83c.35-.05,.64-.31,.69-.68,.06-.45-.25-.86-.7-.93-.27-.04-.53-.07-.8-.11h0c-3.9-.49-7.84-.49-11.73,0h0c-.27,.03-.53,.07-.8,.11-.45,.06-.76,.48-.7,.93,.05,.37,.34,.63,.69,.68l-.26,2.83h-.44c-.43,0-.85-.17-1.16-.48s-.48-.72-.48-1.16v-6.87c0-.79,.56-1.45,1.31-1.56h0c.68-.1,1.37-.19,2.06-.27h0c3.75-.41,7.54-.41,11.29,0,.69,.07,1.37,.16,2.06,.27h0c.75,.11,1.31,.77,1.31,1.56v6.87c0,.22-.04,.43-.12,.63-.08,.2-.2,.38-.36,.53Z"/></g></g></g></svg>